<svg id="Ebene_1" data-name="Ebene 1" xmlns="http://www.w3.org/2000/svg" viewBox="0 0 493.87 284.44"><defs><style>.cls-1{fill:#1d1d1b;}</style></defs><path class="cls-1" d="M456.43,247.08a40.5,40.5,0,1,1,40.5-40.5A40.55,40.55,0,0,1,456.43,247.08Zm0-69a28.5,28.5,0,1,0,28.5,28.5A28.53,28.53,0,0,0,456.43,178.08Z" transform="translate(-3.07 -107.78)"/><path class="cls-1" d="M93.57,288.78a90.43,90.43,0,1,1,38-8.32A90.6,90.6,0,0,1,93.57,288.78Zm0-169a78.52,78.52,0,1,0,78.5,78.5A78.59,78.59,0,0,0,93.57,119.78Z" transform="translate(-3.07 -107.78)"/><path class="cls-1" d="M324.24,330.75a6,6,0,0,1-4.05-10.43l105.45-96.39a6,6,0,0,1,8.1,8.86L328.29,329.18A6,6,0,0,1,324.24,330.75Z" transform="translate(-3.07 -107.78)"/><path class="cls-1" d="M417.09,212.58a5.73,5.73,0,0,1-1.63-.23L329.6,188.18a6,6,0,1,1,3.25-11.55l85.86,24.17a6,6,0,0,1-1.62,11.78Z" transform="translate(-3.07 -107.78)"/><path class="cls-1" d="M172.42,345.42a6,6,0,0,1-5-2.65L124,278.36a6,6,0,0,1,9.95-6.7l43.41,64.41a6,6,0,0,1-1.62,8.32A5.92,5.92,0,0,1,172.42,345.42Z" transform="translate(-3.07 -107.78)"/><path class="cls-1" d="M255.85,310.71a35,35,0,1,1,35-35A35,35,0,0,1,255.85,310.71Zm0-60a25,25,0,1,0,25,25A25,25,0,0,0,255.85,250.71Z" transform="translate(-3.07 -107.78)"/><path class="cls-1" d="M315.85,392.22a4.51,4.51,0,0,1-4.5-4.5c0-37.09-22.82-63-55.5-63s-55.5,25.91-55.5,63a4.5,4.5,0,0,1-9,0c0-19.64,6.07-37.62,17.09-50.64,11.83-14,28.23-21.36,47.41-21.36s35.59,7.39,47.42,21.36c11,13,17.08,31,17.08,50.64A4.5,4.5,0,0,1,315.85,392.22Z" transform="translate(-3.07 -107.78)"/><path class="cls-1" d="M233.43,328.28l.67-1a1.86,1.86,0,0,0,.3-.93,2,2,0,0,0,0-1,2.8,2.8,0,0,0-1.15-1.49l-.6-.25a2.5,2.5,0,0,0-1.33,0l-.6.25a2.48,2.48,0,0,0-.89.9l-.67,1a1.86,1.86,0,0,0-.3.93,1.89,1.89,0,0,0,.05,1,1.78,1.78,0,0,0,.44.85,1.87,1.87,0,0,0,.7.64l.6.26a2.5,2.5,0,0,0,1.33,0l.6-.26a2.53,2.53,0,0,0,.89-.89Z" transform="translate(-3.07 -107.78)"/><path class="cls-1" d="M228.73,327.89a90.23,90.23,0,0,0,26.42,30.93,87.31,87.31,0,0,0,9.69,6.24c2.82,1.56,5.34-2.76,2.52-4.32a85.18,85.18,0,0,1-34.31-35.37c-1.48-2.86-5.79-.34-4.32,2.52Z" transform="translate(-3.07 -107.78)"/><path class="cls-1" d="M251.83,365.06c2.1-8,8.53-13.7,14.06-19.44,5.94-6.17,11.57-13.39,12-22.29.15-3.22-4.85-3.21-5,0-.35,8.18-6.48,14.67-11.9,20.2-5.75,5.87-11.8,12-13.94,20.21-.82,3.11,4,4.44,4.82,1.32Z" transform="translate(-3.07 -107.78)"/><path class="cls-1" d="M249.33,352.57l-1.88.46a2.53,2.53,0,0,0-1.74,3.08,2.56,2.56,0,0,0,3.07,1.75L260,355.81a2.51,2.51,0,0,0,1.75-3.07,2.57,2.57,0,0,0-3.08-1.75l-11.23,2,1.33,4.83,1.87-.47a2.5,2.5,0,1,0-1.32-4.82Z" transform="translate(-3.07 -107.78)"/><path class="cls-1" d="M54.31,198.22l-1.57-3.13-7.85,6.06,38.34,47.71c1.23,1.53,3.8,1.73,5.46,1s3.31-2.63,3.07-4.57a108,108,0,0,1-.53-20.26c.12-1.68.28-3.37.47-5.05,0-.38.09-.77.14-1.16.12-1-.12.78,0-.22s.26-1.8.41-2.7q.81-4.91,2.06-9.74t3-9.7q.84-2.4,1.8-4.75c.07-.17.51-1.25.27-.67s.28-.65.36-.84q.51-1.15,1.05-2.31a112.24,112.24,0,0,1,10.13-17.56c.53-.74,1.06-1.48,1.6-2.21l.94-1.25c.34-.45-.15.21-.18.24l.48-.61q1.76-2.22,3.63-4.34a107.8,107.8,0,0,1,8.07-8.21,5,5,0,0,0,0-7.07,5.11,5.11,0,0,0-7.07,0,113.55,113.55,0,0,0-25.15,33.67A120.53,120.53,0,0,0,81.49,222a108,108,0,0,0,.27,23.37l8.54-3.53L52,194.08c-1.56-1.94-4.78-1.77-6.57-.39a5,5,0,0,0-1.28,6.45l1.57,3.13a5,5,0,0,0,6.84,1.79,5.12,5.12,0,0,0,1.79-6.84Z" transform="translate(-3.07 -107.78)"/><path class="cls-1" d="M314.84,197.1a21,21,0,1,1,21-21A21,21,0,0,1,314.84,197.1Zm0-30a9,9,0,1,0,9,9A9,9,0,0,0,314.84,167.1Z" transform="translate(-3.07 -107.78)"/><path class="cls-1" d="M178.06,200.09a6,6,0,0,1-.73-12l121.78-15A6,6,0,0,1,300.58,185L178.8,200.05A6.23,6.23,0,0,1,178.06,200.09Z" transform="translate(-3.07 -107.78)"/><path class="cls-1" d="M456.43,220.4H423a5.5,5.5,0,0,1,0-11h33.48a5.5,5.5,0,0,1,0,11Z" transform="translate(-3.07 -107.78)"/><path class="cls-1" d="M489.83,203.39H460.2a5.5,5.5,0,1,1,0-11h29.63a5.5,5.5,0,1,1,0,11Z" transform="translate(-3.07 -107.78)"/></svg>