<svg id="Ebene_1" data-name="Ebene 1" xmlns="http://www.w3.org/2000/svg" viewBox="0 0 500 500"><defs><style>.cls-1{fill:#d93f16;}</style></defs><path class="cls-1" d="M374.36,241a6.37,6.37,0,0,0,9,0l13.47-13.49a6.55,6.55,0,0,1,9,0l5.26,5.27a6.37,6.37,0,0,1,1.87,4.5v16.43a18.93,18.93,0,0,0,5.57,13.47l14.25,14.25a6.36,6.36,0,0,0,9,0l53.89-53.92a6.35,6.35,0,0,0,0-9h0l-14.25-14.25a18.9,18.9,0,0,0-13.47-5.58H451.48a6.3,6.3,0,0,1-4.48-1.87l-5.26-5.26a6.34,6.34,0,0,1,0-9l4.48-4.48a6.33,6.33,0,0,0,0-9l-44.76-44.75a7.09,7.09,0,0,0-1-.8,121.37,121.37,0,0,0-63-20.4L248.8,99.92A6.35,6.35,0,0,0,246,112.07l83.85,37.43a96.48,96.48,0,0,1,22,15.25l-22.41,22.4a6.33,6.33,0,0,0,0,9ZM338.41,205.1l27,27M437.23,268l-9.74-9.77a6.45,6.45,0,0,1-1.85-4.48V237.32a19,19,0,0,0-5.59-13.49l-5.27-5.26a19,19,0,0,0-26.94,0l-9,9-35.94-35.94,22.45-22.45a6.34,6.34,0,0,0,0-9l-1.79-1.79A108.52,108.52,0,0,0,335.27,138l-54.18-24.22L337,115.9a108.76,108.76,0,0,1,55.9,17.93l39.81,39.83a19.07,19.07,0,0,0,0,26.93l5.29,5.29a18.87,18.87,0,0,0,13.46,5.57h16.43a6.44,6.44,0,0,1,4.49,1.85l9.76,9.77Z"/><path class="cls-1" d="M252.22,285.5l-32.88-29.44a.46.46,0,0,0-.12-.12,9.34,9.34,0,0,1-.56-13.73l18.65-18.65a21.2,21.2,0,0,0,3.19-25.91L164.82,71.56A10.76,10.76,0,0,0,148,69.48L125.86,91.59a10.79,10.79,0,0,0-3,9.74l6.56,32.77-23.81-11.9a10.77,10.77,0,0,0-12.43,2L5.66,211.79a10.77,10.77,0,0,0,2.07,16.86l126.1,75.68a21.19,21.19,0,0,0,25.9-3.19l18.66-18.66a9.34,9.34,0,0,1,13.74.57.58.58,0,0,0,.1.12l29.42,32.88,6.12,6.82,8.4-8.4-6.1-6.82-28.95-32.33A21.16,21.16,0,0,0,170,274.09l-18.66,18.65a9.31,9.31,0,0,1-11.4,1.41L116,279.8,15,219.2l86-86L128.74,147a9.36,9.36,0,0,0,13.37-10.21l-7.44-37.23,20.7-20.71,60.6,101,14.35,23.92a9.3,9.3,0,0,1-1.41,11.39l-18.65,18.67a21.19,21.19,0,0,0,1.23,31.11l32.33,28.95,6.83,6.1,8.4-8.4Zm110.2,98.64-76-68.05L279.57,310l-8.4,8.4,6.84,6.13L354.56,393a1.31,1.31,0,0,0,.12.11,9.35,9.35,0,0,1,.58,13.72L343,419.08a9.33,9.33,0,0,1-13.72-.58l-.1-.11-68.54-76.55L254.55,335l-8.4,8.39,6.12,6.84,68,76a21.34,21.34,0,0,0,15.26,7.42h.87a21.28,21.28,0,0,0,15-6.21l12.2-12.2a21.2,21.2,0,0,0-1.22-31.13Z"/><path class="cls-1" d="M341.77,198,144.88,394.84c-8.79,9.1-10,22.13-.92,30.93a22.94,22.94,0,0,0,31.85,0L372.68,228.9M169.33,419.28a13.75,13.75,0,0,1-19.45,0c-5.37-5.37-3.89-12.59,1.48-18L348.23,204.45l18,18Z"/></svg>