<svg id="Ebene_1" data-name="Ebene 1" xmlns="http://www.w3.org/2000/svg" viewBox="0 0 500 500"><defs><style>.cls-1{fill:#d93f16;}</style></defs><path class="cls-1" d="M457.86,245.16a39.64,39.64,0,1,1,39.64-39.64A39.68,39.68,0,0,1,457.86,245.16Zm0-69.48a29.84,29.84,0,1,0,29.84,29.84A29.88,29.88,0,0,0,457.86,175.68Z"/><path class="cls-1" d="M92.48,287.15a89.9,89.9,0,1,1,37.75-8.27A90.08,90.08,0,0,1,92.48,287.15Zm0-170.16a80.19,80.19,0,1,0,80.19,80.18A80.27,80.27,0,0,0,92.48,117Z"/><path class="cls-1" d="M324.75,329.41a4.9,4.9,0,0,1-3.3-8.52l106.17-97a4.91,4.91,0,0,1,6.62,7.24l-106.18,97A4.89,4.89,0,0,1,324.75,329.41Z"/><path class="cls-1" d="M418.24,210.42a5.13,5.13,0,0,1-1.33-.18L330.46,185.9a4.9,4.9,0,1,1,2.65-9.43l86.46,24.33a4.9,4.9,0,0,1-1.33,9.62Z"/><path class="cls-1" d="M171.89,344.18a4.87,4.87,0,0,1-4.07-2.16l-43.71-64.85a4.9,4.9,0,1,1,8.12-5.48L176,336.54a4.9,4.9,0,0,1-4.06,7.64Z"/><path class="cls-1" d="M255.9,310.24a35.11,35.11,0,1,1,35.1-35.1A35.14,35.14,0,0,1,255.9,310.24Zm0-60.41a25.31,25.31,0,1,0,25.3,25.31A25.33,25.33,0,0,0,255.9,249.83Z"/><path class="cls-1" d="M316.31,392.82a4.9,4.9,0,0,1-4.9-4.9c0-37.14-22.83-63.07-55.51-63.07s-55.52,25.93-55.52,63.07a4.9,4.9,0,0,1-9.8,0c0-19.87,6.14-38.06,17.29-51.23,12-14.16,28.59-21.64,48-21.64s36,7.48,48,21.64c11.15,13.17,17.29,31.36,17.29,51.23A4.9,4.9,0,0,1,316.31,392.82Z"/><path class="cls-1" d="M235.38,329.27l.67-1a3.62,3.62,0,0,0,.58-1.82,3.74,3.74,0,0,0-.08-2,3.81,3.81,0,0,0-.88-1.66,3.56,3.56,0,0,0-1.38-1.26l-1.17-.5a5,5,0,0,0-2.6,0l-1.17.5a4.84,4.84,0,0,0-1.76,1.75l-.67,1a3.64,3.64,0,0,0-.59,1.82,3.85,3.85,0,0,0,.09,2,3.71,3.71,0,0,0,.88,1.66,3.64,3.64,0,0,0,1.37,1.27l1.17.49a5,5,0,0,0,2.61,0l1.17-.49a5,5,0,0,0,1.76-1.76Z"/><path class="cls-1" d="M226.53,328.88a93.41,93.41,0,0,0,27.51,32,88,88,0,0,0,9.7,6.24,4.91,4.91,0,0,0,4.95-8.47,87.9,87.9,0,0,1-8.44-5.31c-.64-.46-1.27-.92-1.89-1.39l-.47-.36s.65.52.22.17L257,351q-1.91-1.54-3.71-3.18a88.73,88.73,0,0,1-7-7.11c-1.08-1.22-2.1-2.49-3.12-3.75-.35-.43.13.17.16.22l-.35-.47-.71-.94c-.5-.68-1-1.37-1.48-2.07a89.27,89.27,0,0,1-5.83-9.72,5,5,0,0,0-6.71-1.76,5,5,0,0,0-1.75,6.71Z"/><path class="cls-1" d="M254.14,365.74a13.88,13.88,0,0,1,1-3c-.6,1.11.2-.4.3-.61.23-.46.47-.92.73-1.37.51-.91,1.07-1.79,1.67-2.65.3-.43.61-.85.93-1.28-.72,1,.32-.4.46-.57,2.66-3.25,5.69-6.17,8.6-9.19,6.4-6.67,12.2-14.43,12.62-24a4.93,4.93,0,0,0-4.9-4.9,5,5,0,0,0-4.9,4.9,8.31,8.31,0,0,1-.12,1.57l-.15.61a20.9,20.9,0,0,1-.88,3c-.09.24-.18.48-.28.72.24-.57.25-.6,0-.1s-.46.94-.71,1.4c-.43.81-.9,1.61-1.41,2.38s-1.2,1.77-1.85,2.61c.72-.93-.35.43-.48.59l-1,1.23c-1.36,1.56-2.79,3.05-4.24,4.53-6.13,6.26-12.51,12.83-14.8,21.55a4.9,4.9,0,1,0,9.45,2.61Z"/><path class="cls-1" d="M248.69,350.22l-1.89.47a4.91,4.91,0,0,0-3.42,6,5,5,0,0,0,2.25,2.93,5.49,5.49,0,0,0,3.78.49l11.3-2.05a4.92,4.92,0,0,0,2.93-2.26,4.88,4.88,0,0,0-1.76-6.7,5.46,5.46,0,0,0-3.77-.49l-11.31,2.05,2.61,9.45,1.88-.47a4.9,4.9,0,1,0-2.6-9.45Z"/><path class="cls-1" d="M52.85,197.18,51.26,194,43.56,200l38.61,48c1.21,1.51,3.73,1.7,5.35,1s3.24-2.58,3-4.47A109,109,0,0,1,90,224.27c.12-1.72.28-3.43.47-5.15.05-.44.11-.88.16-1.33.12-1-.11.76,0-.21s.26-1.77.41-2.65c.55-3.34,1.25-6.66,2.1-9.93s1.84-6.52,3-9.71c.57-1.63,1.19-3.24,1.84-4.84.07-.16.5-1.22.27-.65l0-.12.3-.71c.33-.76.67-1.52,1-2.27A113.23,113.23,0,0,1,109.86,169c.55-.78,1.11-1.55,1.68-2.32l.81-1.07-.18.23.59-.75q1.72-2.17,3.56-4.26a107.27,107.27,0,0,1,8.19-8.33,4.94,4.94,0,0,0,0-6.93,5,5,0,0,0-6.93,0,114.07,114.07,0,0,0-25.35,34A121.26,121.26,0,0,0,80.46,221a108.7,108.7,0,0,0,.27,23.51l8.37-3.47L50.5,193c-1.53-1.9-4.69-1.73-6.44-.38A5,5,0,0,0,42.8,199l1.58,3.15a4.94,4.94,0,0,0,6.71,1.76,5,5,0,0,0,1.76-6.7Z"/><path class="cls-1" d="M315.29,194.83a20,20,0,1,1,20-20A20,20,0,0,1,315.29,194.83Zm0-30.2a10.2,10.2,0,1,0,10.21,10.2A10.21,10.21,0,0,0,315.29,164.63Z"/><path class="cls-1" d="M177.56,197.85a4.9,4.9,0,0,1-.59-9.76l122.62-15.16a4.9,4.9,0,0,1,1.2,9.73L178.17,197.82C178,197.84,177.76,197.85,177.56,197.85Z"/><path class="cls-1" d="M457.86,218.8H424.15a4.9,4.9,0,1,1,0-9.8h33.71a4.9,4.9,0,0,1,0,9.8Z"/><path class="cls-1" d="M491.49,201.67H461.65a4.9,4.9,0,1,1,0-9.8h29.84a4.9,4.9,0,0,1,0,9.8Z"/></svg>