<svg id="Ebene_1" data-name="Ebene 1" xmlns="http://www.w3.org/2000/svg" viewBox="0 0 413 495.73"><defs><style>.cls-1{fill:#1d1d1b;}</style></defs><path class="cls-1" d="M403.56,360.94C368.88,327,320,308.15,261.62,306c-3.79-.14-7.63-.21-11.5-.21-2,0-3.91,0-5.86.06C183.4,307,132.47,326,96.68,360.94c-34.22,33.44-53.06,80.79-53.06,133.32a4,4,0,0,0,8,0c0-105.48,72.1-175,184.93-180.19q6.69-.31,13.57-.31h1.45c119.75.56,197.05,71.28,197.05,180.49a4,4,0,0,0,8,0C456.62,441.73,437.78,394.38,403.56,360.94ZM242.88,306.09l.19,0,.2,0C242.65,306.13,242.53,306.15,242.88,306.09Z" transform="translate(-43.62 -2.53)"/><path class="cls-1" d="M243.27,306c-.62.09-.74.11-.39,0l.19,0Z" transform="translate(-43.62 -2.53)"/><path class="cls-1" d="M137.62,394.76c-19,0-46.07-17.91-47.22-18.67a4,4,0,0,1,4.44-6.66c.26.18,26.21,17.33,42.78,17.33,8.21,0,14.56-4.55,22.61-10.31,7.87-5.65,16.8-12,30.13-16.48,27.61-9.21,45.77-9.21,73.26-9.21,23.52,0,32-32.64,32.12-33a4,4,0,1,1,7.76,1.94c-.4,1.6-10.1,39-39.88,39-26.71,0-44.35,0-70.73,8.8-12.19,4.06-20.59,10.08-28,15.39C156,389.29,148.4,394.76,137.62,394.76Z" transform="translate(-43.62 -2.53)"/><path class="cls-1" d="M343.55,326.21c-15.7,7.33-27.42,21.2-33.91,37.05-6.36,15.53-7.2,33.81-.88,49.49a71.68,71.68,0,0,0,61.15,43.89,63.42,63.42,0,0,0,13.2-.62,77,77,0,0,0,12.21-3.2c4.32-1.38,8.64-2.85,13.09-3.81l1.37-.28.83-.14c.22,0,.92,0,.15,0s.15,0,.3,0l.62,0c.57-.05,1.14-.07,1.71-.08,1,0,2,0,3,.11l.93.09c.72.06-.93-.15-.21,0s1.25.2,1.87.33a41.3,41.3,0,0,1,6.5,1.9l.91.36c.69.25-.77-.35-.1,0l1.63.74c1.08.52,2.14,1.07,3.19,1.66a64.41,64.41,0,0,1,6,3.95c.17.12.74.58-.06-.06l.62.5c.41.33.82.66,1.22,1,.95.8,1.86,1.63,2.75,2.5a44.67,44.67,0,0,1,6.2,7.87c1.67,3.34,3.43,1.88,5.11.05,2-2.18,1.13-3.69.11-6.67-3-8.87-13.67-16.75-22.3-20.42a46.36,46.36,0,0,0-14.59-3.74,39.11,39.11,0,0,0-12.9,1.47c-4.39,1.14-8.69,2.63-13,4-2,.63-4.07,1.24-6.14,1.74-.9.21-1.8.41-2.71.56-.36.06-1.71.17-.32.06-.58,0-1.16.14-1.74.2a58.62,58.62,0,0,1-12.21-.09l-.7-.08c-.37-.05-.77.08.3,0a7.42,7.42,0,0,1-1.39-.21c-1-.17-2.06-.36-3.08-.58q-3-.65-5.92-1.57c-.94-.3-1.88-.61-2.81-1l-1.32-.49c-.33-.13-2.07-.77-.75-.29a42.78,42.78,0,0,1-5.38-2.57q-2.71-1.45-5.29-3.13c-.83-.55-1.65-1.11-2.46-1.69L337.2,434c-.18-.14-.39-.27-.56-.43,1,.88.1.07-.1-.08a67.41,67.41,0,0,1-8.84-8.47c-.61-.71-1.2-1.43-1.78-2.16s.06.08.13.19c-.12-.19-.28-.37-.42-.56-.35-.46-.69-.93-1-1.41-1.17-1.66-2.27-3.38-3.28-5.15s-1.9-3.6-2.74-5.46c-.12-.25-.29-.86.09.23-.07-.21-.18-.43-.26-.64-.18-.44-.35-.87-.51-1.31-.37-1-.72-2-1-3a56.49,56.49,0,0,1-1.52-6c-.17-.9-.32-1.8-.46-2.7s0,.2,0,.32c0-.23-.06-.46-.09-.68-.06-.57-.12-1.13-.17-1.7a62.47,62.47,0,0,1,.1-11.92l.15-1.36c.11-.89,0,.2,0,.31.05-.22.07-.45.1-.67.15-1,.33-2,.53-3,.41-2,.9-4,1.49-6s1.18-3.7,1.9-5.51a9.48,9.48,0,0,1,.51-1.28c-.7,1.18.09-.19.24-.53.42-.94.87-1.87,1.33-2.79a67,67,0,0,1,6.2-10.06c.13-.19.27-.37.41-.55.68-.92-.52.64,0,.07.29-.36.57-.72.86-1.07.65-.79,1.32-1.57,2-2.33,1.33-1.48,2.74-2.89,4.21-4.23.71-.66,1.44-1.29,2.18-1.91l1.06-.86c.14-.11.74-.57.17-.14s.32-.23.44-.33c1.6-1.18,3.26-2.29,5-3.31s3.4-1.89,5.16-2.71c2.38-1.11,3.16-4.72,1.79-6.84a5.14,5.14,0,0,0-6.84-1.8Z" transform="translate(-43.62 -2.53)"/><path class="cls-1" d="M243.27,306c-.62.09-.74.11-.39,0l.19,0Z" transform="translate(-43.62 -2.53)"/><path class="cls-1" d="M271.5,285.53a45.87,45.87,0,0,1-5.1,13.64,40,40,0,0,1-4.78,6.8c-3.79-.14-7.63-.21-11.5-.21-2,0-3.91,0-5.86.06q.74-.17,1.47-.39l.86-.3c.46-.35.56-.35.45-.25a2.86,2.86,0,0,0-.42.24,1.6,1.6,0,0,0,.42-.24c.36-.17.76-.31,1.09-.49.62-.34,1.22-.7,1.8-1.09l.69-.48,0,0h0c.44-.38.9-.75,1.33-1.15a32.52,32.52,0,0,0,2.73-2.9c.05-.07.11-.13.17-.2v0a4,4,0,0,1,.36-.48c.43-.58.83-1.18,1.22-1.78.7-1.08,1.34-2.2,1.93-3.34.3-.59.59-1.18.87-1.78l.27-.61s0-.09.05-.13a45.11,45.11,0,0,0,2-6.23c.11-.51.22-1,.32-1.54,0-.25.08-.5.13-.75a2.13,2.13,0,0,1,.14-.46,0,0,0,0,0,0,0,25,25,0,0,0,.14-3.74c0-1.59,0-3.18-.15-4.76-.05-.77-.13-1.53-.22-2.3,0-.05,0-.2,0-.35l0-.17a.28.28,0,0,0,0-.09c0-.15,0-.25,0-.25s0-.22,0-.33a71.67,71.67,0,0,0-2.22-9.59c-.49-1.62-1-3.22-1.63-4.81-.25-.65-.5-1.29-.76-1.94l-.18-.42-.11-.24.06.1-.06-.11-.33-.77c-1.38-3-2.95-6-4.57-8.94-3.41-6.16-7.13-12.13-10.51-18.3a128.21,128.21,0,0,1-13.92-38.94,129.66,129.66,0,0,1-.56-42c.41-2.76,3.77-4,6.15-3.49,2.85.65,3.88,3.57,3.49,6.15,0,.09-.08.57-.13.91a.68.68,0,0,0,0,.14.25.25,0,0,0,0,.08,0,0,0,0,1,0,0v.06a.18.18,0,0,0,0,.05c-.05.31-.09.61-.12.92-.11,1-.22,1.92-.31,2.87q-.27,2.88-.41,5.76-.27,5.67,0,11.33.13,2.88.4,5.76c.1,1,.2,2.06.33,3.09,0,.11.08.65.12,1a.2.2,0,0,1,0,.07c0,.07,0,.12,0,.15a.11.11,0,0,1,0,0h0c0,.16,0,.32.07.49q.83,5.72,2.19,11.33,1.25,5.19,3,10.24.85,2.54,1.81,5c.27.69.55,1.37.83,2.06l.18.44.08.18,0,.08a.36.36,0,0,0,0,.09c.12.29.25.59.38.88a183.2,183.2,0,0,0,9.87,18.63c7.05,12,14,24.17,16.36,38.11A54.59,54.59,0,0,1,271.5,285.53Z" transform="translate(-43.62 -2.53)"/><path class="cls-1" d="M230.9,4a221.66,221.66,0,0,0-33.26,45.4c-9,16.39-15.82,34.23-18.59,52.76a114.49,114.49,0,0,0,4.3,54.17c5.63,17.38,14.73,33.54,25.81,48A213.52,213.52,0,0,0,248,243.4c1.94,1.5,3.89,3,5.88,4.43s5.66.43,6.84-1.8c1.37-2.6.47-5.19-1.8-6.84-.84-.61-1.68-1.23-2.51-1.86l-1.26-1-.62-.48c.53.41.32.26-.08-.06-1.73-1.34-3.43-2.72-5.11-4.11q-5.06-4.2-9.83-8.69a207.29,207.29,0,0,1-18.35-19.6c-.66-.8-1.3-1.6-1.94-2.4-.35-.43-.69-.87-1-1.3l-.24-.31c.41.54-.29-.37-.37-.47q-2-2.61-3.89-5.3-3.92-5.52-7.39-11.31T200,170.77c-1-2-1.91-4-2.79-6-.13-.29-.73-1.72-.29-.65-.2-.49-.41-1-.61-1.48-.4-1-.79-2-1.16-3a119.73,119.73,0,0,1-6.58-24.89c0-.26-.07-.52-.11-.77-.11-.74.11.9,0,.17-.06-.52-.13-1-.18-1.55-.13-1.11-.24-2.23-.33-3.34q-.25-3.21-.32-6.44a111.53,111.53,0,0,1,.53-13.31c.1-1,.21-2,.33-3,0-.27.07-.54.11-.81.09-.75-.13.87,0,.13l.27-1.81c.34-2.22.75-4.42,1.21-6.62.91-4.35,2-8.66,3.36-12.91s2.86-8.53,4.55-12.7l.64-1.54c.29-.7-.32.73,0,0l.33-.77c.47-1.09,1-2.17,1.45-3.25q1.4-3,2.9-6.05a200.75,200.75,0,0,1,14.07-23.67q2-2.85,4-5.63c.67-.9,1.33-1.79,2-2.68l.5-.66c0-.06.48-.62.12-.15l.25-.32c.21-.27.42-.55.64-.82q4.22-5.34,8.74-10.43c1.44-1.61,2.9-3.21,4.39-4.78A5.09,5.09,0,0,0,238,4a5.09,5.09,0,0,0-7.07,0Z" transform="translate(-43.62 -2.53)"/><path class="cls-1" d="M230.9,11.07A251.57,251.57,0,0,1,248.72,36a195,195,0,0,1,13,24.39l.61,1.41c.1.24.21.47.3.71-.41-1-.15-.36-.06-.14.44,1,.87,2.1,1.28,3.16.77,2,1.5,3.93,2.2,5.91,1.32,3.78,2.49,7.62,3.51,11.49s1.81,7.49,2.49,11.28c.34,1.88.63,3.77.9,5.66.1.69-.19-.07,0-.34a3.37,3.37,0,0,0,.08.66c.06.44.11.88.16,1.32.12,1,.22,2,.32,3a148.18,148.18,0,0,1,.47,21.69c-.18,3.6-.49,7.2-.91,10.79-.1.84-.25,1.68-.31,2.52.11-1.52,0-.14,0,.25s-.15,1-.23,1.57c-.26,1.72-.54,3.45-.85,5.17a264.94,264.94,0,0,1-11.51,41.65c-4.94,13.92-10.59,27.57-16.19,41.23-.72,1.75-1.44,3.51-2.15,5.26-1,2.43,1.07,5.6,3.49,6.15,2.91.66,5.09-.89,6.15-3.49,5.68-13.92,11.51-27.79,16.69-41.9a287.93,287.93,0,0,0,12.36-42,169.65,169.65,0,0,0,3.39-44.44,153.64,153.64,0,0,0-10.75-47.07c-7.31-18.23-17.51-35.07-29.44-50.63C241.76,8.76,239.89,6.36,238,4c-1.65-2-5.38-1.84-7.07,0-2,2.17-1.76,4.9,0,7.08Z" transform="translate(-43.62 -2.53)"/></svg>