<svg id="Ebene_1" data-name="Ebene 1" xmlns="http://www.w3.org/2000/svg" viewBox="0 0 350 490"><defs><style>.cls-1{fill:#010101;}</style></defs><path class="cls-1" d="M285.12,141.29V9.5A4.11,4.11,0,0,0,281,5.4H219.23a4.11,4.11,0,0,0-4.11,4.1V141.29a4.11,4.11,0,0,1-4.1,4.11H79.23a4.11,4.11,0,0,0-4.11,4.1v61.79a4.11,4.11,0,0,0,4.11,4.11H211a4.11,4.11,0,0,1,4.1,4.1V491.29a4.11,4.11,0,0,0,4.11,4.11H281a4.11,4.11,0,0,0,4.1-4.11V219.5a4.11,4.11,0,0,1,4.11-4.1H421a4.11,4.11,0,0,0,4.1-4.11V149.5a4.11,4.11,0,0,0-4.1-4.1H289.23A4.11,4.11,0,0,1,285.12,141.29Zm127.15,65.36H280.48a4.11,4.11,0,0,0-4.11,4.1V482.54a4.11,4.11,0,0,1-4.1,4.11H228a4.11,4.11,0,0,1-4.11-4.11V210.75a4.11,4.11,0,0,0-4.1-4.1H88a4.11,4.11,0,0,1-4.11-4.11V158.25a4.11,4.11,0,0,1,4.11-4.1H219.77a4.11,4.11,0,0,0,4.1-4.11V18.25a4.11,4.11,0,0,1,4.11-4.1h44.29a4.11,4.11,0,0,1,4.1,4.1V150a4.11,4.11,0,0,0,4.11,4.11H412.27a4.11,4.11,0,0,1,4.1,4.1v44.29A4.11,4.11,0,0,1,412.27,206.65Z" transform="translate(-75.12 -5.4)"/><path d="M328.94,113.64a379.71,379.71,0,0,1,44.31-45q6.86-5.9,14-11.44c2.07-1.62,1.82-5.4,0-7.07-2.2-2-4.86-1.73-7.07,0A380.93,380.93,0,0,0,333.75,93q-6.11,6.66-11.88,13.61c-1.67,2-2.11,5.13,0,7.07,1.85,1.69,5.28,2.14,7.07,0Z" transform="translate(-75.12 -5.4)"/><path d="M191.33,107.82a259.63,259.63,0,0,0-36.45-45.1,5,5,0,1,0-7.07,7.07,254.49,254.49,0,0,1,18.94,20.86l2.11,2.64L170,94.71l.6.78q2.12,2.78,4.16,5.62,4.14,5.76,8,11.76c1.41,2.2,4.51,3.29,6.84,1.79a5.07,5.07,0,0,0,1.8-6.84Z" transform="translate(-75.12 -5.4)"/><path d="M171.24,238.64a186,186,0,0,0-42.54,30.92,190,190,0,0,0-32.47,41.65,187.34,187.34,0,0,0-12.81,27.24c-.93,2.45,1,5.59,3.49,6.15a5.14,5.14,0,0,0,6.15-3.49c.75-2,1.55-4,2.36-5.94.28-.67-.34.79,0,.13l.3-.72c.21-.47.42-.94.62-1.42.45-1,.9-2,1.36-3q2.7-5.79,5.79-11.39a183.62,183.62,0,0,1,13.9-21.41l.94-1.23c.14-.18.57-.76-.07.09.15-.21.32-.41.47-.61.68-.87,1.36-1.73,2.06-2.58q2-2.48,4.11-4.89,4.19-4.81,8.71-9.34t9.34-8.72q2.34-2,4.74-4c.8-.65,1.61-1.3,2.42-1.93.27-.22,1.35-1.12.51-.41.49-.42,1-.79,1.54-1.17a179.59,179.59,0,0,1,24.18-15.32,5,5,0,0,0,1.79-6.84,5.1,5.1,0,0,0-6.84-1.79Z" transform="translate(-75.12 -5.4)"/><path d="M179.75,277.43a189.07,189.07,0,0,0-12.14,65.79,185.52,185.52,0,0,0,.86,18.71c.25,2.59,2.12,5.13,5,5,2.49-.11,5.27-2.21,5-5a185.22,185.22,0,0,1-.25-32.8c.22-2.76.51-5.53.86-8.28l.12-.92c0,.21-.13.95,0,0,.09-.61.17-1.22.26-1.83.22-1.45.46-2.9.71-4.34q1.41-8.09,3.53-16,2.4-8.94,5.68-17.6c.93-2.45-1-5.59-3.49-6.15a5.14,5.14,0,0,0-6.15,3.49Z" transform="translate(-75.12 -5.4)"/><path d="M307.44,263.67l29.55,42,8.43,12c1.5,2.13,4.44,3.34,6.84,1.79,2.12-1.36,3.4-4.55,1.79-6.84l-29.55-42-8.43-12c-1.5-2.13-4.43-3.34-6.84-1.79-2.12,1.36-3.4,4.55-1.79,6.84Z" transform="translate(-75.12 -5.4)"/><path d="M336.82,249.36l47.29,14.33a5,5,0,0,0,2.66-9.64l-47.29-14.33a5,5,0,0,0-6.15,3.49,5.1,5.1,0,0,0,3.49,6.15Z" transform="translate(-75.12 -5.4)"/><path d="M299.24,74.1l-.45,4.44c-.25,2.47,2.09,4.61,4.33,4.91s5.15-1.12,5.49-3.58L316.75,21a5.48,5.48,0,0,0-.51-3.85,5.05,5.05,0,0,0-3-2.3c-2.36-.53-5.77.72-6.15,3.5L299,77.21l9.82,1.33.45-4.44c.27-2.61-2.49-5.11-5-5-2.94.13-4.71,2.21-5,5Z" transform="translate(-75.12 -5.4)"/><path d="M153.69,115.38a102.9,102.9,0,0,1-11.33-6.44q-2.73-1.8-5.33-3.76l-.65-.49c.47.37.49.38,0,0s-.85-.67-1.27-1c-.79-.64-1.57-1.29-2.34-2a101,101,0,0,1-9.18-9q-2.17-2.43-4.2-5l-.5-.64c.36.47.38.49,0,0s-.66-.87-1-1.31c-.64-.87-1.27-1.76-1.88-2.66-1.48-2.15-4.46-3.33-6.84-1.79-2.14,1.38-3.38,4.53-1.79,6.84a108,108,0,0,0,30.86,30A102.88,102.88,0,0,0,148.65,124c2.35,1.14,5.51.72,6.84-1.79,1.18-2.25.72-5.62-1.8-6.84Z" transform="translate(-75.12 -5.4)"/></svg>