<svg id="Ebene_1" data-name="Ebene 1" xmlns="http://www.w3.org/2000/svg" viewBox="0 0 500 500"><defs><style>.cls-1{fill:#d93f16;}</style></defs><path class="cls-1" d="M230.92,146.2a17.35,17.35,0,0,0-4.17,3.36L7.29,385.73A17.9,17.9,0,0,0,24.4,415.37l65-14.89L104,397.14l104.84-24,14.33-3.28L338.67,343.4a17.81,17.81,0,0,0,11.5-26.4l-94.8-164.21A17.93,17.93,0,0,0,230.92,146.2ZM337.44,324.35a3.25,3.25,0,0,1-1.13,4.39,3.58,3.58,0,0,1-.91.35l-118.07,27-15.84,3.61L108.22,381.1l-17.27,4L21.12,401a3.2,3.2,0,0,1-3.06-5.3L237.5,159.54a3.69,3.69,0,0,1,.77-.61,3.25,3.25,0,0,1,4.37,1.21Z"/><path class="cls-1" d="M290.28,213.25a26.34,26.34,0,0,0-10.5,11.22l22,38.09a26.46,26.46,0,1,0-11.49-49.31Zm19.1,33.1a11.76,11.76,0,1,1,4.31-16.06A11.76,11.76,0,0,1,309.38,246.35Z"/><path class="cls-1" d="M223.18,369.85c2.45,10.53.7,21.66-4.37,32-5.87,11.94-16.22,22.84-29.73,30.64a88.26,88.26,0,0,1-14,6.49c-17,6.17-34.82,7-50.29,2.32-16.21-4.93-27.93-15.27-33-29.1a42.44,42.44,0,0,1-2.48-11.71L104,397.14a27.94,27.94,0,0,0,1.66,10c3.42,9.4,11.76,16.54,23.44,20.08,12.42,3.76,27,3,41-2.06,26.73-9.73,43.31-32.51,38.73-52Z"/><path class="cls-1" d="M312.33,161.36l41.42-80.8L365.4,57.85c.48-.93-.58-1.6-1.27-1.84a10.17,10.17,0,0,0-4.59-.06,17.87,17.87,0,0,0-5.43,1.74,6.39,6.39,0,0,0-2.86,2.45l-41.43,80.8-11.64,22.71c-.48.94.58,1.6,1.26,1.84a10.21,10.21,0,0,0,4.6.07,18,18,0,0,0,5.43-1.74,6.41,6.41,0,0,0,2.86-2.46Z"/><path class="cls-1" d="M359.56,195.44,398,161.94l38.63-33.66,21.73-18.94c1.12-1,2.33-2.12,2.52-3.72a3.7,3.7,0,0,0-1.7-3.46,9.54,9.54,0,0,0-10.23.91l-38.44,33.5-38.63,33.66-21.73,18.94c-1.13,1-2.33,2.12-2.52,3.72a3.68,3.68,0,0,0,1.7,3.46,9.54,9.54,0,0,0,10.23-.91Z"/><path class="cls-1" d="M353.93,266q25.47,5.61,51.33,9.18,26.39,3.63,53,5.17,14.64.85,29.31,1a14.49,14.49,0,0,0,5.59-1.12,8.77,8.77,0,0,0,3.85-2.73c1.7-2.81-1.46-4-3.82-4q-25.84-.33-51.6-2.7l-.72-.07c1.33.15.44,0,.15,0l-1.43-.14-3.35-.34q-3.22-.33-6.45-.7-6.45-.72-12.88-1.58-12.75-1.71-25.43-3.9-14.44-2.5-28.77-5.67a12.07,12.07,0,0,0-5.31.35,11.79,11.79,0,0,0-4.78,2.36c-.8.75-1.77,1.77-1.44,3s1.71,1.64,2.74,1.86Z"/></svg>