<svg id="Ebene_1" data-name="Ebene 1" xmlns="http://www.w3.org/2000/svg" viewBox="0 0 483.3 415.21"><defs><style>.cls-1{fill:#010101;}</style></defs><path class="cls-1" d="M489.7,198.36h0l-15-15a19.94,19.94,0,0,0-14.21-5.87H443.11a6.66,6.66,0,0,1-4.72-2l-5.56-5.55a6.7,6.7,0,0,1,0-9.48l4.73-4.72a6.68,6.68,0,0,0,0-9.48l-47.21-47.2a7.83,7.83,0,0,0-1-.84,128,128,0,0,0-66.45-21.52l-93.54-3.47a6.7,6.7,0,0,0-3,12.82l88.45,39.47a101.87,101.87,0,0,1,23.25,16.1l-23.64,23.61a6.68,6.68,0,0,0,0,9.48l-64.11,64.11L238,251.09,248,260l12.27-12.27,63.57-63.57,28.44,28.43L278,286.87l10,9,12.28-12.3,61.48-61.46a6.74,6.74,0,0,0,9.48,0l14.21-14.23a6.9,6.9,0,0,1,9.47,0l5.56,5.55a6.78,6.78,0,0,1,2,4.75v17.33a19.91,19.91,0,0,0,5.88,14.21l15,15a6.69,6.69,0,0,0,9.47,0l56.85-56.87A6.72,6.72,0,0,0,489.7,198.36ZM428.08,250.5,417.8,240.2a6.82,6.82,0,0,1-1.95-4.73V218.14a20,20,0,0,0-5.9-14.22l-5.55-5.56a20.08,20.08,0,0,0-28.41,0l-9.48,9.48L328.6,169.93l23.69-23.68a6.7,6.7,0,0,0,0-9.48l-1.89-1.89a114.43,114.43,0,0,0-29.87-21.45L263.39,87.89l59,2.19a114.79,114.79,0,0,1,59,18.91l42,42a20.12,20.12,0,0,0,0,28.41l5.57,5.57a19.9,19.9,0,0,0,14.2,5.88h17.33a6.78,6.78,0,0,1,4.73,1.95l10.3,10.3ZM129.59,435.28a20.1,20.1,0,0,1-28.43-28.43L214.57,293.44l12.27-12.27-8.91-10-12.3,12.28L91.7,397.37a33.5,33.5,0,0,0,47.37,47.37l111.3-111.3,12.3-12.28-9-10Z" transform="translate(-8.35 -42.39)"/><path class="cls-1" d="M402,457.61l-.94,0a22.91,22.91,0,0,1-16.39-8L123.76,178a4,4,0,0,1,5.77-5.54l261,271.69.17.19a14.84,14.84,0,0,0,21.81.9l1.7-1.69a14.83,14.83,0,0,0-.91-21.81l-.19-.17-271.69-261a4,4,0,0,1,5.54-5.77L418.54,415.74a22.82,22.82,0,0,1,1.29,33.48l-1.7,1.7A22.9,22.9,0,0,1,402,457.61Z" transform="translate(-8.35 -42.39)"/><path class="cls-1" d="M117.36,190a5.5,5.5,0,0,1-3.89-9.39l34.93-34.93a5.5,5.5,0,0,1,7.78,7.77l-34.93,34.94A5.52,5.52,0,0,1,117.36,190Z" transform="translate(-8.35 -42.39)"/><path class="cls-1" d="M128.77,167.23A248.19,248.19,0,0,1,96.56,157l-1.91-.77-1-.4-.54-.22c-.82-.34.81.35.24.1-1.31-.57-2.62-1.13-3.92-1.72-2.71-1.22-5.39-2.49-8-3.84a166.48,166.48,0,0,1-15.19-8.7q-3.66-2.37-7.18-5l-1.66-1.24-.47-.36.43.33c-.33-.28-.7-.54-1-.82Q54.65,133,53,131.65a114.11,114.11,0,0,1-12.44-12.24q-1.39-1.62-2.73-3.27l-.73-.93c-.53-.68.7.93,0,0-.45-.59-.89-1.18-1.32-1.78q-2.56-3.53-4.8-7.27c-1.5-2.53-2.89-5.13-4.15-7.78-.33-.69-.64-1.37-.95-2.06-.14-.33-.28-.65-.43-1-.06-.14-.26-.65,0,0s0-.07-.1-.24c-.59-1.42-1.13-2.86-1.65-4.3a96.43,96.43,0,0,1-4.48-18.26,3.76,3.76,0,0,0-.09-.66s.13,1.06.07.5l-.15-1.16c-.1-.9-.2-1.79-.28-2.69-.15-1.66-.26-3.32-.34-5-.16-3.52-.15-7.05,0-10.56.08-1.87.22-3.74.38-5.6.24-2.62-2.46-5.12-5-5a5.13,5.13,0,0,0-5,5,111.22,111.22,0,0,0,3.83,41.78,101.27,101.27,0,0,0,17.73,33.57A124.15,124.15,0,0,0,57,147.24,173.43,173.43,0,0,0,88.35,164.3a246.55,246.55,0,0,0,33.76,11.55c1.33.35,2.66.69,4,1a5,5,0,1,0,2.66-9.64Z" transform="translate(-8.35 -42.39)"/><path class="cls-1" d="M144.25,159.85a193.6,193.6,0,0,0-11.51-33A169.93,169.93,0,0,0,115,96.3,144.15,144.15,0,0,0,90.18,69.72,123.24,123.24,0,0,0,57.67,50.48a117.51,117.51,0,0,0-38.72-8c-1.7-.07-3.4-.09-5.1-.09a5,5,0,0,0,0,10q5.05,0,10.1.39c1.64.13,3.27.3,4.89.5.19,0,1.34.18.59.07l.76.11,2.47.4a111,111,0,0,1,18.09,4.66q2.07.72,4.11,1.53L56,60.5c.17.07,1.19.47.48.2s.46.19.64.27l1.06.47c2.72,1.22,5.4,2.55,8,4a118,118,0,0,1,14.79,9.64,2.82,2.82,0,0,1,.39.29s-.8-.63-.37-.28l.89.7c.6.48,1.19,1,1.77,1.44q1.69,1.4,3.33,2.85,3.28,2.89,6.37,6t5.84,6.29c1,1.09,1.91,2.21,2.83,3.33a24.09,24.09,0,0,1,2.73,3.42c0-.09-.71-.93-.19-.24l.3.39.58.77c.46.61.91,1.21,1.35,1.83q1.29,1.75,2.52,3.56,2.46,3.6,4.74,7.33A172.54,172.54,0,0,1,122.28,128c.62,1.29,1.23,2.59,1.82,3.9s1,2.72,1.72,3.92c0,0-.41-1-.2-.46.06.15.13.29.19.44l.36.87.82,2c.52,1.32,1,2.64,1.52,4q2.9,7.81,5.08,15.87c.35,1.31.69,2.63,1,3.95a5,5,0,0,0,9.64-2.66Z" transform="translate(-8.35 -42.39)"/><path class="cls-1" d="M12.57,62.21a344.06,344.06,0,0,0,39.48,48.4,351.21,351.21,0,0,0,46.13,38.9c9.66,6.89,19.62,13.37,29.75,19.56a5,5,0,1,0,5-8.63c-9-5.48-17.78-11.17-26.38-17.19q-6.16-4.29-12.15-8.82l-2.76-2.1c-1-.8.82.64-.2-.16l-.61-.47-1.51-1.18c-2-1.58-4-3.17-5.93-4.79A319.23,319.23,0,0,1,41.8,84.51q-2.77-3.3-5.47-6.7l-2.58-3.28c-.49-.64.72.94-.07-.1l-.73-1-1.22-1.6q-5.44-7.23-10.52-14.71c-1.47-2.16-4.47-3.33-6.84-1.8-2.15,1.39-3.37,4.53-1.8,6.84Z" transform="translate(-8.35 -42.39)"/><path class="cls-1" d="M139.14,157a215,215,0,0,0-36.3-50.47,208.28,208.28,0,0,0-48.6-37.09A222.88,222.88,0,0,0,21.69,54.87a5,5,0,0,0-6.15,3.49A5.12,5.12,0,0,0,19,64.51c2.41.87,4.81,1.77,7.2,2.72q1.77.7,3.54,1.44c.85.35,0,0-.14-.06.35.14.7.3,1.05.45l1.75.76q7,3.09,13.79,6.69A204.92,204.92,0,0,1,71.5,92.38c1,.7,1.89,1.4,2.83,2.12l.73.56c.62.47-.94-.74,0,0l1.6,1.27c1.94,1.54,3.84,3.11,5.72,4.72q5.7,4.89,11,10.2t10.15,10.88q2.45,2.82,4.78,5.73c.71.87,1.4,1.76,2.09,2.64s-.64-.84.14.18l.45.59,1.36,1.8a214.61,214.61,0,0,1,18.12,29,5,5,0,0,0,6.84,1.79,5.12,5.12,0,0,0,1.79-6.84Z" transform="translate(-8.35 -42.39)"/></svg>