<svg id="Ebene_1" data-name="Ebene 1" xmlns="http://www.w3.org/2000/svg" viewBox="0 0 500 500"><defs><style>.cls-1{fill:#d93f16;}</style></defs><path class="cls-1" d="M189.65,139.59H147.08a1.34,1.34,0,0,1-1.32-1.32V95.7a1.33,1.33,0,0,0-1.32-1.32h-20a1.33,1.33,0,0,0-1.32,1.32v42.57a1.35,1.35,0,0,1-1.32,1.32H79.27A1.33,1.33,0,0,0,78,140.9v20a1.33,1.33,0,0,0,1.32,1.32h42.57a1.34,1.34,0,0,1,1.32,1.32v77l2.82-.24V160.68a1.34,1.34,0,0,0-1.32-1.32H82.09a1.34,1.34,0,0,1-1.32-1.31V143.73a1.34,1.34,0,0,1,1.32-1.32h42.57a1.33,1.33,0,0,0,1.32-1.32V98.52a1.34,1.34,0,0,1,1.32-1.32h14.32a1.34,1.34,0,0,1,1.31,1.32v42.57a1.34,1.34,0,0,0,1.32,1.32h42.57a1.33,1.33,0,0,1,1.32,1.32v14.32a1.33,1.33,0,0,1-1.32,1.31H144.25a1.35,1.35,0,0,0-1.32,1.32V240c.17-.19.34,1.9.53,1.72.76-.76,1.53.77,2.3,0V163.51a1.33,1.33,0,0,1,1.32-1.32h42.57a1.34,1.34,0,0,0,1.32-1.32v-20A1.34,1.34,0,0,0,189.65,139.59Z"/><path class="cls-1" d="M139.93,243.67v-83a4.33,4.33,0,0,1,4.32-4.32h40.89v-11H144.25a4.33,4.33,0,0,1-4.32-4.32V100.2H129v40.89a4.33,4.33,0,0,1-4.32,4.32H83.77v11h40.89a4.33,4.33,0,0,1,4.32,4.32V243l-3,.25c-.83.06-1.68.13-2.55.22l-3.29.32V165.19H79.27A4.33,4.33,0,0,1,75,160.87v-20a4.32,4.32,0,0,1,4.32-4.31h40.89V95.7a4.32,4.32,0,0,1,4.32-4.32h20a4.33,4.33,0,0,1,4.32,4.32v40.89h40.89A4.32,4.32,0,0,1,194,140.9v20a4.33,4.33,0,0,1-4.32,4.32H148.76V243l-.93.89a3.57,3.57,0,0,1-3.28.94l-.25.25-1.53-.46Z"/><path class="cls-1" d="M495.48,364.64a3.39,3.39,0,0,1-4.47-1.72c-.82-1.81-81.4-181.07-159.65-181.07-27.24,0-49.93,17-67.9,39.05-.36.46-.75.93-1.11,1.38q-1.67,2.1-3.23,4.23c-.39.5-.75,1-1.11,1.47a68.29,68.29,0,0,0-7-2.37q2.15-3,4.39-5.86c18.71-24,42.88-43.24,72.6-44.62,1.13,0,2.26-.07,3.39-.07s2.26,0,3.39.12c81.4,4.72,159.13,177.55,162.45,185A3.37,3.37,0,0,1,495.48,364.64Z"/><path class="cls-1" d="M344.74,341.27a3.37,3.37,0,0,1-4.27-2.15c-.36-1-31.08-91-90.48-114.28,1.4-1.92,2.84-3.82,4.34-5.7,60.91,25,91.11,113.49,92.56,117.86A3.35,3.35,0,0,1,344.74,341.27Z"/><path class="cls-1" d="M262.35,222.28q-1.67,2.1-3.23,4.23c-.39.5-.75,1-1.11,1.47a68.29,68.29,0,0,0-7-2.37,75.25,75.25,0,0,0-21.34-3.08c-15.12,0-28.82,5.2-41.09,13.61-2.24,1.54-4.45,3.19-6.6,5-.86.7-1.72,1.4-2.58,2.12-.7.61-1.38,1.2-2.05,1.84s-1.29,1.17-1.93,1.76c-.92.88-1.85,1.76-2.75,2.67-.23.22-.43.42-.64.65q-2.06,2-4,4.21c-.63.7-1.27,1.4-1.88,2.1-1,1.1-2,2.24-2.91,3.39-22.31,26.69-37.61,61.62-45.68,83.09-.73,1.92-1.38,3.73-2,5.42-2-1.47-3.87-3-5.68-4.49.64-1.77,1.32-3.64,2.06-5.61,7.89-20.89,21.88-52.53,42.29-78.41.52-.7,1.07-1.4,1.63-2.08.36-.43.7-.88,1.09-1.31,1.35-1.7,2.75-3.33,4.2-4.95q1.42-1.63,2.92-3.19c1.44-1.56,2.93-3.07,4.45-4.57.25-.22.5-.47.77-.7.9-.88,1.83-1.74,2.75-2.57,1.11-1,2.24-2,3.39-3,.39-.34.8-.68,1.18-1,15.21-12.52,32.89-20.73,53.07-20.73a84.31,84.31,0,0,1,25.73,4c.76.25,1.53.5,2.3.79C259.25,221.06,260.81,221.65,262.35,222.28Z"/><path class="cls-1" d="M188.55,236.14c-2.24,1.54-4.45,3.19-6.6,5-.86.7-1.72,1.4-2.58,2.12-1.24,0-2.57.09-4,.16l-3.39.18-3.52.18c-1.72.12-3.53.23-5.38.37q-5.4.36-11.44.9c-1.11.09-2.24.18-3.39.29-49,4.57-123.12,17.86-135.91,56.29C-6.81,359.1,70.9,398.79,71.69,399.2a3.39,3.39,0,0,1-3,6.06c-.84-.41-83.75-42.72-62.73-105.81,14.18-42.49,91.82-56.51,142.36-61.1,1.15-.11,2.28-.2,3.39-.29,7.57-.65,14.47-1.08,20.34-1.38,1.18,0,2.31-.11,3.39-.16l1.18,0C181.72,236.27,185.82,236.16,188.55,236.14Z"/><path class="cls-1" d="M254.53,402.14a3.37,3.37,0,0,1-3,1.88,3.21,3.21,0,0,1-1.51-.37c-.59-.29-88.88-21.13-134.47-55.31-2-1.47-3.87-3-5.68-4.49-16-13.54-24.86-29-19.19-46,7.1-21.27,30.09-35.4,57.62-44.78,1.13-.41,2.26-.77,3.39-1.15,4.05-1.29,8.18-2.51,12.37-3.62,2.64-.72,5.31-1.4,8-2,1.13-.3,2.26-.54,3.39-.79.64-.16,1.29-.32,1.93-.45-.66.58-1.29,1.17-1.93,1.76-.92.88-1.85,1.76-2.75,2.67-.23.22-.43.42-.64.65q-2.06,2-4,4.21-3.93,1-7.75,2.1c-1.49.4-2.94.86-4.41,1.31-2.15.65-4.25,1.33-6.33,2-25.36,8.71-46.18,21.45-52.42,40.19-4.63,13.9,2,26.76,14.83,38.27,1.76,1.58,3.64,3.14,5.61,4.68C160.63,376.35,252.45,397.3,253,397.6A3.38,3.38,0,0,1,254.53,402.14Z"/><path class="cls-1" d="M350.76,210.94a279,279,0,0,1,36.11,31.87,283.62,283.62,0,0,1,30.2,37.68q7.57,11.31,14,23.31c.65,1.2,3,.77,3.91.33,1.13-.53,2.08-1.57,1.42-2.8a282.41,282.41,0,0,0-59.83-76.16q-10.24-9.22-21.32-17.43c-1.9-1.41-7.07,1.3-4.51,3.2Z"/></svg>